<svg xmlns:xlink="http://www.w3.org/1999/xlink" xmlns="http://www.w3.org/2000/svg" width="34" height="44" viewBox="0 0 34 44" fill="none"><path fill-rule="evenodd" clip-rule="evenodd" d="M25.5 12C25.5 12.828 24.828 13.5 24 13.5C23.172 13.5 22.5 12.828 22.5 12V9C22.5 5.962 20.038 3.5 17 3.5C13.962 3.5 11.5 5.962 11.5 9V12C11.5 12.828 10.828 13.5 10 13.5C9.172 13.5 8.5 12.828 8.5 12V9C8.5 4.306 12.306 0.5 17 0.5C21.694 0.5 25.5 4.306 25.5 9V12Z" fill="#428EFF"></path><path fill-rule="evenodd" clip-rule="evenodd" d="M31.6841 14.7L33.2841 38.7C33.3661 39.944 32.9301 41.164 32.0801 42.074C31.2281 42.984 30.0381 43.5 28.7941 43.5H5.20609C3.96209 43.5 2.77209 42.984 1.92009 42.074C1.07009 41.164 0.634087 39.944 0.716087 38.7L2.31609 14.7C2.47409 12.336 4.43809 10.5 6.80609 10.5H27.1941C29.5621 10.5 31.5261 12.336 31.6841 14.7ZM21.9721 19.356C21.0881 21.214 19.1941 22.5 17.0001 22.5C14.8061 22.5 12.9121 21.214 12.0281 19.356C11.6741 18.608 10.7781 18.29 10.0301 18.646C9.28209 19 8.96409 19.896 9.31809 20.644C10.6821 23.516 13.6101 25.5 17.0001 25.5C20.3901 25.5 23.3181 23.516 24.6821 20.644C25.0361 19.896 24.7181 19 23.9701 18.646C23.2221 18.29 22.3261 18.608 21.9721 19.356Z" fill="#428EFF"></path></svg>