<svg xmlns:xlink="http://www.w3.org/1999/xlink" xmlns="http://www.w3.org/2000/svg" width="42" height="48" viewBox="0 0 42 48" fill="none"><path d="M39.225 44.7704H37.2V6.05992C37.2105 4.46524 36.5768 2.93158 35.4379 1.79549C34.299 0.659396 32.7479 0.0136687 31.125 0H10.875C9.25213 0.0136687 7.70105 0.659396 6.56213 1.79549C5.42321 2.93158 4.78948 4.46524 4.8 6.05992V44.7704H2.775C2.23794 44.7704 1.72287 44.98 1.34311 45.3532C0.963348 45.7264 0.75 46.2325 0.75 46.7602C0.75 47.2879 0.963348 47.794 1.34311 48.1672C1.72287 48.5404 2.23794 48.75 2.775 48.75H39.225C39.7621 48.75 40.2771 48.5404 40.6569 48.1672C41.0367 47.794 41.25 47.2879 41.25 46.7602C41.25 46.2325 41.0367 45.7264 40.6569 45.3532C40.2771 44.98 39.7621 44.7704 39.225 44.7704ZM13.9125 7.95918H15.9375C16.4746 7.95918 16.9896 8.16882 17.3694 8.54198C17.7492 8.91514 17.9625 9.42125 17.9625 9.94898C17.9625 10.4767 17.7492 10.9828 17.3694 11.356C16.9896 11.7291 16.4746 11.9388 15.9375 11.9388H13.9125C13.3754 11.9388 12.8604 11.7291 12.4806 11.356C12.1008 10.9828 11.8875 10.4767 11.8875 9.94898C11.8875 9.42125 12.1008 8.91514 12.4806 8.54198C12.8604 8.16882 13.3754 7.95918 13.9125 7.95918ZM13.9125 16.9133H15.9375C16.4746 16.9133 16.9896 17.1229 17.3694 17.4961C17.7492 17.8692 17.9625 18.3753 17.9625 18.9031C17.9625 19.4308 17.7492 19.9369 17.3694 20.3101C16.9896 20.6832 16.4746 20.8929 15.9375 20.8929H13.9125C13.3754 20.8929 12.8604 20.6832 12.4806 20.3101C12.1008 19.9369 11.8875 19.4308 11.8875 18.9031C11.8875 18.3753 12.1008 17.8692 12.4806 17.4961C12.8604 17.1229 13.3754 16.9133 13.9125 16.9133ZM13.9125 29.8469C13.3754 29.8469 12.8604 29.6373 12.4806 29.2641C12.1008 28.891 11.8875 28.3849 11.8875 27.8571C11.8875 27.3294 12.1008 26.8233 12.4806 26.4501C12.8604 26.077 13.3754 25.8673 13.9125 25.8673H15.9375C16.4746 25.8673 16.9896 26.077 17.3694 26.4501C17.7492 26.8233 17.9625 27.3294 17.9625 27.8571C17.9625 28.3849 17.7492 28.891 17.3694 29.2641C16.9896 29.6373 16.4746 29.8469 15.9375 29.8469H13.9125ZM25.05 45.1286H16.95V38.3563C17.0138 37.6252 17.3686 36.9483 17.9373 36.4727C18.5061 35.9971 19.2428 35.7612 19.9875 35.8163H22.0125C22.7572 35.7612 23.4939 35.9971 24.0627 36.4727C24.6314 36.9483 24.9862 37.6252 25.05 38.3563V45.1286ZM28.0875 29.8469H26.0625C25.5254 29.8469 25.0104 29.6373 24.6306 29.2641C24.2508 28.891 24.0375 28.3849 24.0375 27.8571C24.0375 27.3294 24.2508 26.8233 24.6306 26.4501C25.0104 26.077 25.5254 25.8673 26.0625 25.8673H28.0875C28.6246 25.8673 29.1396 26.077 29.5194 26.4501C29.8992 26.8233 30.1125 27.3294 30.1125 27.8571C30.1125 28.3849 29.8992 28.891 29.5194 29.2641C29.1396 29.6373 28.6246 29.8469 28.0875 29.8469ZM28.0875 20.8929H26.0625C25.5254 20.8929 25.0104 20.6832 24.6306 20.3101C24.2508 19.9369 24.0375 19.4308 24.0375 18.9031C24.0375 18.3753 24.2508 17.8692 24.6306 17.4961C25.0104 17.1229 25.5254 16.9133 26.0625 16.9133H28.0875C28.6246 16.9133 29.1396 17.1229 29.5194 17.4961C29.8992 17.8692 30.1125 18.3753 30.1125 18.9031C30.1125 19.4308 29.8992 19.9369 29.5194 20.3101C29.1396 20.6832 28.6246 20.8929 28.0875 20.8929ZM28.0875 11.9388H26.0625C25.5254 11.9388 25.0104 11.7291 24.6306 11.356C24.2508 10.9828 24.0375 10.4767 24.0375 9.94898C24.0375 9.42125 24.2508 8.91514 24.6306 8.54198C25.0104 8.16882 25.5254 7.95918 26.0625 7.95918H28.0875C28.6246 7.95918 29.1396 8.16882 29.5194 8.54198C29.8992 8.91514 30.1125 9.42125 30.1125 9.94898C30.1125 10.4767 29.8992 10.9828 29.5194 11.356C29.1396 11.7291 28.6246 11.9388 28.0875 11.9388Z" fill="#428EFF"></path></svg>