<svg xmlns:xlink="http://www.w3.org/1999/xlink" xmlns="http://www.w3.org/2000/svg" width="36" height="36" viewBox="0 0 36 36" fill="none"><path d="M35.9676 19.6558C35.6204 23.3064 32.3471 26 28.6585 26H27.0141C27.4756 24.068 27.6196 22.0542 27.6402 20.0992C27.6505 18.9837 26.9421 17.9986 25.8788 17.6459L18.814 15.305C18.2792 15.1274 17.7019 15.1338 17.1863 15.305L10.1202 17.6459C9.05826 17.9986 8.34984 18.985 8.36013 20.1018C8.3807 22.0555 8.5247 24.068 8.98626 26H6.71317C3.33312 26 0.318192 23.5301 0.0250565 20.1848C-0.226937 17.3034 1.44702 14.7773 3.9091 13.7333C3.54782 10.176 6.73503 7.52717 10.0637 8.22356C11.6605 5.12494 14.8991 3 18.643 3C23.6405 3 27.7379 6.78094 28.2252 11.6186C28.2458 11.8192 28.4142 11.9611 28.6173 11.9534C32.8858 11.7643 36.3751 15.3599 35.9676 19.6558Z" fill="#4262EF"></path><path d="M17.7893 17.0346L10.4602 19.4352C10.1841 19.5256 9.99736 19.7837 10 20.0694C10.0667 26.3946 11.4952 31.4435 18 34C24.5048 31.4435 25.9333 26.3946 26 20.0681C26.0026 19.7824 25.8159 19.5243 25.5398 19.4339L18.2107 17.0333C18.0734 16.9887 17.9266 16.9887 17.7893 17.0346ZM21.7986 22.9011L18.4642 28.1426C18.2481 28.4807 17.888 28.7048 17.4838 28.7493C17.4331 28.7559 17.3838 28.7585 17.3331 28.7585C16.981 28.7585 16.6409 28.6222 16.3901 28.3746L14.4122 26.4326C13.8906 25.9202 13.8906 25.0921 14.4122 24.5797C14.9323 24.0674 15.7766 24.0674 16.2981 24.5797L17.0904 25.3581L19.5352 21.5121C19.926 20.8975 20.7489 20.7115 21.3731 21.0967C22 21.478 22.1894 22.2879 21.7986 22.9011Z" fill="#4262EF"></path></svg>