<svg xmlns:xlink="http://www.w3.org/1999/xlink" xmlns="http://www.w3.org/2000/svg" width="15" height="15" viewBox="0 0 15 15" fill="none"><path d="M7.15 4.37409e-07C6.21096 -0.000328072 5.28105 0.184388 4.41343 0.543593C3.5458 0.902797 2.75746 1.42945 2.09345 2.09345C1.42945 2.75746 0.902797 3.5458 0.543593 4.41343C0.184388 5.28105 -0.000328072 6.21096 4.37409e-07 7.15C-0.000328072 8.08904 0.184388 9.01895 0.543593 9.88658C0.902797 10.7542 1.42945 11.5425 2.09345 12.2065C2.75746 12.8706 3.5458 13.3972 4.41343 13.7564C5.28105 14.1156 6.21096 14.3003 7.15 14.3C8.08904 14.3003 9.01895 14.1156 9.88658 13.7564C10.7542 13.3972 11.5425 12.8706 12.2065 12.2065C12.8706 11.5425 13.3972 10.7542 13.7564 9.88658C14.1156 9.01895 14.3003 8.08904 14.3 7.15C14.3003 6.21096 14.1156 5.28105 13.7564 4.41343C13.3972 3.5458 12.8706 2.75746 12.2065 2.09345C11.5425 1.42945 10.7542 0.902797 9.88658 0.543593C9.01895 0.184388 8.08904 -0.000328072 7.15 4.37409e-07ZM7.15 12.3C6.93618 12.3005 6.72703 12.2375 6.54905 12.119C6.37106 12.0005 6.23224 11.8319 6.15019 11.6345C6.06814 11.437 6.04654 11.2197 6.08813 11.0099C6.12973 10.8002 6.23264 10.6075 6.38383 10.4563C6.53502 10.3051 6.72769 10.2022 6.93742 10.1606C7.14715 10.119 7.36451 10.1406 7.56195 10.2227C7.7594 10.3047 7.92805 10.4436 8.04653 10.6215C8.16501 10.7995 8.22799 11.0087 8.2275 11.2225C8.22684 11.5081 8.11311 11.7818 7.91118 11.9837C7.70925 12.1856 7.43557 12.2993 7.15 12.3ZM8.4575 3.4L8.05 8.9C8.04746 8.93802 8.03054 8.97366 8.00268 8.99966C7.97482 9.02566 7.93811 9.04009 7.9 9.04H6.4C6.36189 9.04009 6.32518 9.02566 6.29732 8.99966C6.26946 8.97366 6.25254 8.93802 6.25 8.9L5.8425 3.4C5.83146 3.2215 5.85708 3.04262 5.91779 2.8744C5.97851 2.70617 6.07302 2.55216 6.19552 2.42185C6.31801 2.29154 6.4659 2.1877 6.63005 2.11671C6.7942 2.04573 6.97116 2.00911 7.15 2.00911C7.32885 2.00911 7.5058 2.04573 7.66995 2.11671C7.83411 2.1877 7.98199 2.29154 8.10448 2.42185C8.22698 2.55216 8.32149 2.70617 8.38221 2.8744C8.44292 3.04262 8.46854 3.2215 8.4575 3.4Z" fill="#FFA726"></path></svg>