<svg xmlns:xlink="http://www.w3.org/1999/xlink" xmlns="http://www.w3.org/2000/svg" width="20" height="34" viewBox="0 0 20 34" fill="none"><path d="M19.5625 12.5337V24.3463C19.564 25.5961 19.3193 26.834 18.8423 27.9893C18.3654 29.1446 17.6656 30.1946 16.7828 31.0794C15.9001 31.9643 14.8517 32.6666 13.6976 33.1462C12.5434 33.6259 11.3061 33.8735 10.0563 33.875H9.94375C7.42345 33.872 5.00723 32.8695 3.22511 31.0874C1.44298 29.3053 0.440477 26.889 0.4375 24.3687V12.5563C0.444742 12.111 0.624857 11.6859 0.939768 11.371C1.25468 11.0561 1.67971 10.876 2.125 10.8688V3.5C2.125 2.60489 2.48058 1.74645 3.11351 1.11351C3.74645 0.480579 4.60489 0.125 5.5 0.125H14.5C15.3951 0.125 16.2536 0.480579 16.8865 1.11351C17.5194 1.74645 17.875 2.60489 17.875 3.5V8.5625C17.875 8.86087 17.7565 9.14702 17.5455 9.358C17.3345 9.56897 17.0484 9.6875 16.75 9.6875C16.4516 9.6875 16.1655 9.56897 15.9545 9.358C15.7435 9.14702 15.625 8.86087 15.625 8.5625V3.5C15.625 3.20163 15.5065 2.91548 15.2955 2.7045C15.0845 2.49353 14.7984 2.375 14.5 2.375H5.5C5.20163 2.375 4.91548 2.49353 4.70451 2.7045C4.49353 2.91548 4.375 3.20163 4.375 3.5V10.8125H17.8413C18.2978 10.8125 18.7356 10.9938 19.0584 11.3166C19.3812 11.6394 19.5625 12.0772 19.5625 12.5337ZM6.625 5.75V8.5625C6.625 8.86087 6.74353 9.14702 6.95451 9.358C7.16548 9.56897 7.45163 9.6875 7.75 9.6875C8.04837 9.6875 8.33452 9.56897 8.5455 9.358C8.75647 9.14702 8.875 8.86087 8.875 8.5625V5.75C8.875 5.45163 8.75647 5.16548 8.5455 4.9545C8.33452 4.74353 8.04837 4.625 7.75 4.625C7.45163 4.625 7.16548 4.74353 6.95451 4.9545C6.74353 5.16548 6.625 5.45163 6.625 5.75ZM11.125 5.75V8.5625C11.125 8.86087 11.2435 9.14702 11.4545 9.358C11.6655 9.56897 11.9516 9.6875 12.25 9.6875C12.5484 9.6875 12.8345 9.56897 13.0455 9.358C13.2565 9.14702 13.375 8.86087 13.375 8.5625V5.75C13.375 5.45163 13.2565 5.16548 13.0455 4.9545C12.8345 4.74353 12.5484 4.625 12.25 4.625C11.9516 4.625 11.6655 4.74353 11.4545 4.9545C11.2435 5.16548 11.125 5.45163 11.125 5.75Z" fill="#428EFF"></path></svg>