<!-- Generated by IcoMoon.io -->
<svg version="1.1" xmlns="http://www.w3.org/2000/svg" width="890" height="1024" viewBox="0 0 890 1024">
<g id="icomoon-ignore">
</g>
<path fill="none" stroke-linejoin="round" stroke-linecap="round" stroke-miterlimit="4" stroke-width="89.0435" stroke="#000" d="M55.652 957.217v-55.652c0-51.16 10.077-101.817 29.654-149.081s48.273-90.21 84.447-126.384c36.174-36.174 79.12-64.868 126.384-84.444 47.264-19.581 97.922-29.656 149.080-29.656 51.16 0 101.817 10.075 149.081 29.656 47.264 19.576 90.21 48.27 126.384 84.444s64.868 79.12 84.444 126.384c19.581 47.264 29.656 97.921 29.656 149.081v55.652"></path>
<path fill="none" stroke-linejoin="round" stroke-linecap="round" stroke-miterlimit="4" stroke-width="89.0435" stroke="#000" d="M445.212 512c59.041 0 115.659-23.454 157.407-65.202 41.748-41.746 65.202-98.367 65.202-157.407s-23.454-115.661-65.202-157.408c-41.748-41.748-98.366-65.201-157.407-65.201-59.039 0-115.661 23.453-157.408 65.201s-65.2 98.369-65.2 157.408c0 59.039 23.453 115.661 65.2 157.407 41.748 41.748 98.369 65.202 157.408 65.202v0z"></path>
</svg>
