<svg xmlns:xlink="http://www.w3.org/1999/xlink" xmlns="http://www.w3.org/2000/svg" width="44" height="48" viewBox="0 0 44 48" fill="none"><path d="M6.43786 17.0622C3.33565 17.0622 0.812988 14.5396 0.812988 11.4374C0.812988 8.33516 3.33565 5.8125 6.43786 5.8125C9.54007 5.8125 12.0627 8.33516 12.0627 11.4374C12.0627 14.5396 9.54007 17.0622 6.43786 17.0622Z" fill="#428EFF"></path><path d="M37.5621 17.0622C34.4599 17.0622 31.9373 14.5396 31.9373 11.4374C31.9373 8.33516 34.4599 5.8125 37.5621 5.8125C40.6643 5.8125 43.187 8.33516 43.187 11.4374C43.187 14.5396 40.6643 17.0622 37.5621 17.0622Z" fill="#428EFF"></path><path d="M22.0001 14.0622C18.1233 14.0622 14.969 10.9078 14.969 7.03109C14.969 3.15433 18.1233 0 22.0001 0C25.8768 0 29.0312 3.15433 29.0312 7.03109C29.0312 10.9078 25.8768 14.0622 22.0001 14.0622Z" fill="#428EFF"></path><path d="M23.4062 14.2061V23.9075C23.4062 24.6847 22.7773 25.3137 22 25.3137C21.2228 25.3137 20.5938 24.6847 20.5938 23.9075V14.2061C15.8361 14.8958 12.1565 18.9618 12.1565 23.9075V32.3448C12.1565 33.122 12.7854 33.751 13.5627 33.751H16.713L17.7869 46.7126C17.8473 47.4403 18.457 48.0006 19.1876 48.0006H24.8125C25.543 48.0006 26.1528 47.4403 26.2131 46.7126L27.287 33.751H30.4373C31.2146 33.751 31.8435 33.122 31.8435 32.3448V23.9075C31.8435 18.9618 28.1639 14.8958 23.4062 14.2061Z" fill="#428EFF"></path></svg>