<svg xmlns:xlink="http://www.w3.org/1999/xlink" xmlns="http://www.w3.org/2000/svg" width="69" height="69" viewBox="0 0 69 69" fill="none"><rect width="69" height="69" rx="10" transform="matrix(-1 0 0 1 69 0)" fill="#F5F8FD"></rect><path d="M59 42.8379C59 36.6333 55.4405 31.0959 50.1095 28.4023C49.9439 40.2988 40.2988 49.9439 28.4023 50.1095C31.0959 55.4405 36.6333 59 42.8379 59C45.747 59 48.576 58.2252 51.0616 56.7531L58.9294 58.9294L56.7531 51.0616C58.2252 48.576 59 45.747 59 42.8379Z" fill="url(&quot;#paint0_linear_370_11965&quot;)"></path><path d="M47.1836 28.0918C47.1836 17.5644 38.6192 9 28.0918 9C17.5644 9 9 17.5644 9 28.0918C9 31.5227 9.91324 34.8633 11.6474 37.796L9.07019 47.113L18.3876 44.5362C21.3203 46.2704 24.6609 47.1836 28.0918 47.1836C38.6192 47.1836 47.1836 38.6192 47.1836 28.0918ZM25.1621 23.6484H22.2324C22.2324 20.4174 24.8607 17.7891 28.0918 17.7891C31.3228 17.7891 33.9512 20.4174 33.9512 23.6484C33.9512 25.2884 33.2569 26.8646 32.0457 27.9724L29.5566 30.2505V32.5352H26.627V28.9604L30.0678 25.811C30.6827 25.2483 31.0215 24.4804 31.0215 23.6484C31.0215 22.0329 29.7073 20.7188 28.0918 20.7188C26.4763 20.7188 25.1621 22.0329 25.1621 23.6484ZM26.627 35.4648H29.5566V38.3945H26.627V35.4648Z" fill="url(&quot;#paint1_linear_370_11965&quot;)"></path><defs><linearGradient id="paint0_linear_370_11965" x1="34" y1="59" x2="34" y2="9" gradientUnits="userSpaceOnUse"><stop stop-color="#5558FF"></stop><stop offset="1" stop-color="#00C0FF"></stop></linearGradient><linearGradient id="paint1_linear_370_11965" x1="34" y1="59" x2="34" y2="9" gradientUnits="userSpaceOnUse"><stop stop-color="#5558FF"></stop><stop offset="1" stop-color="#00C0FF"></stop></linearGradient><linearGradient id="paint0_linear_370_11965" x1="34" y1="59" x2="34" y2="9" gradientUnits="userSpaceOnUse"><stop stop-color="#5558FF"></stop><stop offset="1" stop-color="#00C0FF"></stop></linearGradient><linearGradient id="paint1_linear_370_11965" x1="34" y1="59" x2="34" y2="9" gradientUnits="userSpaceOnUse"><stop stop-color="#5558FF"></stop><stop offset="1" stop-color="#00C0FF"></stop></linearGradient></defs></svg>