<svg xmlns:xlink="http://www.w3.org/1999/xlink" xmlns="http://www.w3.org/2000/svg" width="69" height="69" viewBox="0 0 69 69" fill="none"><rect width="69" height="69" rx="10" transform="matrix(-1 0 0 1 69 0)" fill="#F5F8FD"></rect><path d="M47.6719 55.0953L44.0156 54.1578L42.3906 57.5484C41.8125 58.7359 40.125 58.7359 39.5625 57.5328L36.2812 50.5016C40.0781 50.0953 43.5781 48.6734 46.5 46.5328L49.4688 52.9078C50.0312 54.1109 48.9531 55.4078 47.6719 55.0953Z" fill="url(&quot;#paint0_linear_370_11947&quot;)"></path><path d="M31.7187 50.5016L28.4375 57.5328C27.875 58.7359 26.1875 58.7359 25.6094 57.5484L23.9844 54.1578L20.3281 55.0953C19.0469 55.4078 17.9687 54.1109 18.5312 52.9078L21.5 46.5328C24.4219 48.6734 27.9219 50.0953 31.7187 50.5016Z" fill="url(&quot;#paint1_linear_370_11947&quot;)"></path><path d="M34 11.5625C24.0766 11.5625 16.0312 19.6078 16.0312 29.5312C16.0312 39.4547 24.0766 47.5 34 47.5C43.9234 47.5 51.9688 39.4547 51.9688 29.5312C51.9688 19.6078 43.9234 11.5625 34 11.5625ZM42.1078 29.1109L39.2188 31.9266L39.9 35.9031C40.125 37.2141 38.7484 38.2156 37.5703 37.5953L34 35.7187L30.4297 37.5953C29.2516 38.2141 27.875 37.2141 28.1 35.9031L28.7812 31.9266L25.8922 29.1109C24.9391 28.1812 25.4656 26.5641 26.7828 26.3719L30.775 25.7922L32.5609 22.175C33.15 20.9812 34.8516 20.9812 35.4406 22.175L37.2266 25.7922L41.2188 26.3719C42.5359 26.5625 43.0609 28.1812 42.1094 29.1109H42.1078Z" fill="url(&quot;#paint2_linear_370_11947&quot;)"></path><defs><linearGradient id="paint0_linear_370_11947" x1="34" y1="58.4371" x2="34" y2="11.5625" gradientUnits="userSpaceOnUse"><stop stop-color="#5558FF"></stop><stop offset="1" stop-color="#00C0FF"></stop></linearGradient><linearGradient id="paint1_linear_370_11947" x1="34" y1="58.4371" x2="34" y2="11.5625" gradientUnits="userSpaceOnUse"><stop stop-color="#5558FF"></stop><stop offset="1" stop-color="#00C0FF"></stop></linearGradient><linearGradient id="paint2_linear_370_11947" x1="34" y1="58.4371" x2="34" y2="11.5625" gradientUnits="userSpaceOnUse"><stop stop-color="#5558FF"></stop><stop offset="1" stop-color="#00C0FF"></stop></linearGradient><linearGradient id="paint0_linear_370_11947" x1="34" y1="58.4371" x2="34" y2="11.5625" gradientUnits="userSpaceOnUse"><stop stop-color="#5558FF"></stop><stop offset="1" stop-color="#00C0FF"></stop></linearGradient><linearGradient id="paint1_linear_370_11947" x1="34" y1="58.4371" x2="34" y2="11.5625" gradientUnits="userSpaceOnUse"><stop stop-color="#5558FF"></stop><stop offset="1" stop-color="#00C0FF"></stop></linearGradient><linearGradient id="paint2_linear_370_11947" x1="34" y1="58.4371" x2="34" y2="11.5625" gradientUnits="userSpaceOnUse"><stop stop-color="#5558FF"></stop><stop offset="1" stop-color="#00C0FF"></stop></linearGradient></defs></svg>