<svg xmlns:xlink="http://www.w3.org/1999/xlink" xmlns="http://www.w3.org/2000/svg" width="50" height="44" viewBox="0 0 50 44" fill="none"><path d="M42.7823 23.6915H38.9155C39.3096 24.7706 39.525 25.9351 39.525 27.1489V41.7632C39.525 42.2692 39.4369 42.755 39.2766 43.2067H45.6693C48.0573 43.2067 50 41.2639 50 38.876V30.9091C50.0001 26.9293 46.7622 23.6915 42.7823 23.6915Z" fill="url(&quot;#paint0_linear_381_11492&quot;)"></path><path d="M10.4751 27.149C10.4751 25.9351 10.6905 24.7707 11.0846 23.6915H7.21779C3.2379 23.6915 0 26.9294 0 30.9093V38.8762C0 41.2641 1.94268 43.2069 4.33067 43.2069H10.7235C10.5632 42.755 10.4751 42.2693 10.4751 41.7633V27.149Z" fill="url(&quot;#paint1_linear_381_11492&quot;)"></path><path d="M29.4201 19.9312H20.58C16.6001 19.9312 13.3622 23.1691 13.3622 27.149V41.7633C13.3622 42.5604 14.0085 43.2068 14.8058 43.2068H35.1943C35.9916 43.2068 36.6379 42.5605 36.6379 41.7633V27.149C36.6379 23.1691 33.4 19.9312 29.4201 19.9312Z" fill="url(&quot;#paint2_linear_381_11492&quot;)"></path><path d="M25 0.792969C20.2137 0.792969 16.3198 4.68692 16.3198 9.47336C16.3198 12.7199 18.1117 15.5554 20.758 17.0441C22.0131 17.7501 23.4602 18.1536 25 18.1536C26.5399 18.1536 27.987 17.7501 29.2421 17.0441C31.8885 15.5554 33.6803 12.7198 33.6803 9.47336C33.6803 4.68702 29.7864 0.792969 25 0.792969Z" fill="url(&quot;#paint3_linear_381_11492&quot;)"></path><path d="M9.75764 8.88371C6.17804 8.88371 3.26592 11.7958 3.26592 15.3754C3.26592 18.955 6.17804 21.8671 9.75764 21.8671C10.6656 21.8671 11.5303 21.679 12.3157 21.341C13.6738 20.7563 14.7935 19.7213 15.4864 18.4249C15.9727 17.5151 16.2493 16.4771 16.2493 15.3754C16.2493 11.7959 13.3372 8.88371 9.75764 8.88371Z" fill="url(&quot;#paint4_linear_381_11492&quot;)"></path><path d="M40.2425 8.88371C36.6629 8.88371 33.7507 11.7958 33.7507 15.3754C33.7507 16.4772 34.0274 17.5152 34.5137 18.4249C35.2066 19.7214 36.3263 20.7564 37.6843 21.341C38.4698 21.679 39.3345 21.8671 40.2425 21.8671C43.8221 21.8671 46.7342 18.955 46.7342 15.3754C46.7342 11.7958 43.8221 8.88371 40.2425 8.88371Z" fill="url(&quot;#paint5_linear_381_11492&quot;)"></path><defs><linearGradient id="paint0_linear_381_11492" x1="25" y1="43.2069" x2="25" y2="0.792969" gradientUnits="userSpaceOnUse"><stop stop-color="#5558FF"></stop><stop offset="1" stop-color="#00C0FF"></stop></linearGradient><linearGradient id="paint1_linear_381_11492" x1="25" y1="43.2069" x2="25" y2="0.792969" gradientUnits="userSpaceOnUse"><stop stop-color="#5558FF"></stop><stop offset="1" stop-color="#00C0FF"></stop></linearGradient><linearGradient id="paint2_linear_381_11492" x1="25" y1="43.2069" x2="25" y2="0.792969" gradientUnits="userSpaceOnUse"><stop stop-color="#5558FF"></stop><stop offset="1" stop-color="#00C0FF"></stop></linearGradient><linearGradient id="paint3_linear_381_11492" x1="25" y1="43.2069" x2="25" y2="0.792969" gradientUnits="userSpaceOnUse"><stop stop-color="#5558FF"></stop><stop offset="1" stop-color="#00C0FF"></stop></linearGradient><linearGradient id="paint4_linear_381_11492" x1="25" y1="43.2069" x2="25" y2="0.792969" gradientUnits="userSpaceOnUse"><stop stop-color="#5558FF"></stop><stop offset="1" stop-color="#00C0FF"></stop></linearGradient><linearGradient id="paint5_linear_381_11492" x1="25" y1="43.2069" x2="25" y2="0.792969" gradientUnits="userSpaceOnUse"><stop stop-color="#5558FF"></stop><stop offset="1" stop-color="#00C0FF"></stop></linearGradient><linearGradient id="paint0_linear_381_11492" x1="25" y1="43.2069" x2="25" y2="0.792969" gradientUnits="userSpaceOnUse"><stop stop-color="#5558FF"></stop><stop offset="1" stop-color="#00C0FF"></stop></linearGradient><linearGradient id="paint1_linear_381_11492" x1="25" y1="43.2069" x2="25" y2="0.792969" gradientUnits="userSpaceOnUse"><stop stop-color="#5558FF"></stop><stop offset="1" stop-color="#00C0FF"></stop></linearGradient><linearGradient id="paint2_linear_381_11492" x1="25" y1="43.2069" x2="25" y2="0.792969" gradientUnits="userSpaceOnUse"><stop stop-color="#5558FF"></stop><stop offset="1" stop-color="#00C0FF"></stop></linearGradient><linearGradient id="paint3_linear_381_11492" x1="25" y1="43.2069" x2="25" y2="0.792969" gradientUnits="userSpaceOnUse"><stop stop-color="#5558FF"></stop><stop offset="1" stop-color="#00C0FF"></stop></linearGradient><linearGradient id="paint4_linear_381_11492" x1="25" y1="43.2069" x2="25" y2="0.792969" gradientUnits="userSpaceOnUse"><stop stop-color="#5558FF"></stop><stop offset="1" stop-color="#00C0FF"></stop></linearGradient><linearGradient id="paint5_linear_381_11492" x1="25" y1="43.2069" x2="25" y2="0.792969" gradientUnits="userSpaceOnUse"><stop stop-color="#5558FF"></stop><stop offset="1" stop-color="#00C0FF"></stop></linearGradient></defs></svg>