<svg xmlns:xlink="http://www.w3.org/1999/xlink" xmlns="http://www.w3.org/2000/svg" width="69" height="69" viewBox="0 0 69 69" fill="none"><rect width="69" height="69" rx="10" transform="matrix(-1 0 0 1 69 0)" fill="#F5F8FD"></rect><g clip-path="url(#clip0_370_11956)" fill="none"><path d="M33.9993 44.5489C34.9234 44.5489 35.6725 43.7998 35.6725 42.8758C35.6725 41.9517 34.9234 41.2026 33.9993 41.2026C33.0753 41.2026 32.3262 41.9517 32.3262 42.8758C32.3262 43.7998 33.0753 44.5489 33.9993 44.5489Z" fill="url(&quot;#paint0_linear_370_11956&quot;)"></path><path d="M33.9993 26.797C34.9234 26.797 35.6725 26.0479 35.6725 25.1238C35.6725 24.1998 34.9234 23.4507 33.9993 23.4507C33.0753 23.4507 32.3262 24.1998 32.3262 25.1238C32.3262 26.0479 33.0753 26.797 33.9993 26.797Z" fill="url(&quot;#paint1_linear_370_11956&quot;)"></path><path d="M57.6521 10.3491C56.7833 9.4791 55.6273 9 54.3972 9H36.869C35.6395 9 34.4834 9.47891 33.6139 10.3485L10.3487 33.6137C9.47891 34.4834 9 35.6394 9 36.8687C9 38.0981 9.4791 39.2541 10.3487 40.1231L27.8765 57.651C28.7458 58.5209 29.9018 59 31.1312 59C32.3606 59 33.5166 58.5211 34.3863 57.6513L57.6515 34.3861C58.5211 33.5166 59 32.3605 59 31.131V13.6028C59 12.3727 58.5209 11.2166 57.6521 10.3491ZM34.0001 20.5212C36.5381 20.5212 38.6029 22.586 38.6029 25.124C38.6029 27.662 36.5381 29.7269 34.0001 29.7269C31.4621 29.7269 29.3973 27.662 29.3973 25.124C29.3973 22.586 31.4621 20.5212 34.0001 20.5212ZM34.0001 47.4786C31.4621 47.4786 29.3973 45.4138 29.3973 42.8758C29.3973 40.3378 31.4621 38.2729 34.0001 38.2729C36.5381 38.2729 38.6029 40.3378 38.6029 42.8758C38.6029 45.4138 36.5381 47.4786 34.0001 47.4786ZM43.4141 35.4647H24.5861C23.7771 35.4647 23.1213 34.8089 23.1213 33.9999C23.1213 33.1909 23.7771 32.5351 24.5861 32.5351H43.4141C44.223 32.5351 44.8789 33.1909 44.8789 33.9999C44.8789 34.8089 44.2231 35.4647 43.4141 35.4647ZM49.6901 19.7747C48.8815 19.7747 48.2253 19.1185 48.2253 18.3099C48.2253 17.5013 48.8815 16.845 49.6901 16.845C50.4987 16.845 51.155 17.5013 51.155 18.3099C51.155 19.1185 50.4987 19.7747 49.6901 19.7747Z" fill="url(&quot;#paint2_linear_370_11956&quot;)"></path></g><defs><linearGradient id="paint0_linear_370_11956" x1="33.9993" y1="44.5489" x2="33.9993" y2="41.2026" gradientUnits="userSpaceOnUse"><stop stop-color="#5558FF"></stop><stop offset="1" stop-color="#00C0FF"></stop></linearGradient><linearGradient id="paint1_linear_370_11956" x1="33.9993" y1="26.797" x2="33.9993" y2="23.4507" gradientUnits="userSpaceOnUse"><stop stop-color="#5558FF"></stop><stop offset="1" stop-color="#00C0FF"></stop></linearGradient><linearGradient id="paint2_linear_370_11956" x1="34" y1="59" x2="34" y2="9" gradientUnits="userSpaceOnUse"><stop stop-color="#5558FF"></stop><stop offset="1" stop-color="#00C0FF"></stop></linearGradient><clipPath id="clip0_370_11956"><rect width="50" height="50" fill="white" transform="translate(9 9)"></rect></clipPath><linearGradient id="paint0_linear_370_11956" x1="33.9993" y1="44.5489" x2="33.9993" y2="41.2026" gradientUnits="userSpaceOnUse"><stop stop-color="#5558FF"></stop><stop offset="1" stop-color="#00C0FF"></stop></linearGradient><linearGradient id="paint1_linear_370_11956" x1="33.9993" y1="26.797" x2="33.9993" y2="23.4507" gradientUnits="userSpaceOnUse"><stop stop-color="#5558FF"></stop><stop offset="1" stop-color="#00C0FF"></stop></linearGradient><linearGradient id="paint2_linear_370_11956" x1="34" y1="59" x2="34" y2="9" gradientUnits="userSpaceOnUse"><stop stop-color="#5558FF"></stop><stop offset="1" stop-color="#00C0FF"></stop></linearGradient></defs></svg>