<svg xmlns:xlink="http://www.w3.org/1999/xlink" xmlns="http://www.w3.org/2000/svg" width="38" height="50" viewBox="0 0 38 50" fill="none"><path d="M34.7518 0H30.4472V14.5684C30.4472 15.5919 29.4123 16.098 28.6106 14.8129L25.7674 10.2638L22.9242 14.8129C22.1168 16.0923 21.0875 15.5919 21.0875 14.5684V0H6.65559C3.16688 0.00938246 0.34375 2.84019 0.34375 6.3289V43.6882C0.353132 47.1702 3.17356 49.9906 6.65559 50H34.7575C35.526 49.9987 36.2625 49.6919 36.8046 49.147C37.3495 48.605 37.6562 47.8685 37.6575 47.1V2.90572C37.6544 1.30217 36.3554 0.00312749 34.7518 0ZM35.292 42.494L7.87247 42.5281C7.27483 42.5694 6.79931 43.045 6.75809 43.6425C6.71245 44.3036 7.21143 44.8765 7.87247 44.9221H35.292L35.2863 47.1284C35.2866 47.2599 35.2356 47.3864 35.1442 47.481C35.0496 47.5724 34.9231 47.6234 34.7916 47.6231H6.65559C4.49648 47.6231 2.74623 45.8729 2.74623 43.7137C2.74623 41.5546 4.49648 39.8044 6.65559 39.8044H34.7916C35.0667 39.8075 35.2889 40.0297 35.292 40.3048V42.494Z" fill="url(&quot;#paint0_linear_381_11545&quot;)"></path><defs><linearGradient id="paint0_linear_381_11545" x1="19.0006" y1="50" x2="19.0006" y2="0" gradientUnits="userSpaceOnUse"><stop stop-color="#5558FF"></stop><stop offset="1" stop-color="#00C0FF"></stop></linearGradient><linearGradient id="paint0_linear_381_11545" x1="19.0006" y1="50" x2="19.0006" y2="0" gradientUnits="userSpaceOnUse"><stop stop-color="#5558FF"></stop><stop offset="1" stop-color="#00C0FF"></stop></linearGradient></defs></svg>