<svg xmlns:xlink="http://www.w3.org/1999/xlink" xmlns="http://www.w3.org/2000/svg" width="80" height="80" viewBox="0 0 80 80" fill="none"><g id="" fill="none"><g id="" fill="none"><g id="" fill="none"><g id="" fill="none"><path id="" d="M33.4996 51.5997L20.8189 43.25C19.7386 42.5291 18.283 42.8221 17.5688 43.9C16.85 44.978 17.1408 46.4314 18.2188 47.1502L30.8994 55.4999C31.2999 55.7653 31.7508 55.8936 32.1972 55.8936C32.9549 55.8936 33.6986 55.5274 34.1496 54.8499C34.8683 53.7719 34.5777 52.3185 33.4996 51.5997ZM56.7821 35.475C55.7338 34.7221 54.2689 34.9669 53.5136 36.0197L43.5428 49.7596C42.7899 50.8124 43.0347 52.2772 44.0875 53.028C44.4996 53.3233 44.9757 53.4652 45.4471 53.4652C46.1796 53.4652 46.8982 53.1241 47.356 52.4833L57.3267 38.7435C58.0799 37.6907 57.835 36.2258 56.7821 35.475Z" fill="url(&quot;#paint0_linear_224_9070&quot;)"></path></g></g><g id="" fill="none"><g id="" fill="none"><path id="" d="M11.7188 28.2812C5.25734 28.2812 0 33.5386 0 40C0 46.4614 5.25734 51.7188 11.7188 51.7188C18.1802 51.7188 23.4375 46.4614 23.4375 40C23.4375 33.5386 18.1802 28.2812 11.7188 28.2812ZM40 47.0312C33.5386 47.0312 28.2812 52.2886 28.2812 58.75C28.2812 65.2114 33.5386 70.4688 40 70.4688C46.4614 70.4688 51.7188 65.2114 51.7188 58.75C51.7188 52.2886 46.4614 47.0312 40 47.0312ZM63.5938 9.53125C54.5483 9.53125 47.1875 16.892 47.1875 25.9375C47.1875 34.983 54.5483 42.3438 63.5938 42.3438C72.6392 42.3438 80 34.983 80 25.9375C80 16.892 72.6392 9.53125 63.5938 9.53125Z" fill="url(&quot;#paint1_linear_224_9070&quot;)"></path></g></g></g></g><defs><linearGradient id="" x1="37.4691" y1="55.8936" x2="37.4691" y2="35.0382" gradientUnits="userSpaceOnUse"><stop stop-color="#ADDCFF"></stop><stop offset="0.5028" stop-color="#EAF6FF"></stop><stop offset="1" stop-color="#EAF6FF"></stop></linearGradient><linearGradient id="" x1="40" y1="70.4688" x2="40" y2="9.53125" gradientUnits="userSpaceOnUse"><stop stop-color="#5558FF"></stop><stop offset="1" stop-color="#00C0FF"></stop></linearGradient><linearGradient id="paint0_linear_224_9070" x1="37.4691" y1="55.8936" x2="37.4691" y2="35.0382" gradientUnits="userSpaceOnUse"><stop stop-color="#ADDCFF"></stop><stop offset="0.5028" stop-color="#EAF6FF"></stop><stop offset="1" stop-color="#EAF6FF"></stop></linearGradient><linearGradient id="paint1_linear_224_9070" x1="40" y1="70.4688" x2="40" y2="9.53125" gradientUnits="userSpaceOnUse"><stop stop-color="#5558FF"></stop><stop offset="1" stop-color="#00C0FF"></stop></linearGradient></defs></svg>