<svg xmlns:xlink="http://www.w3.org/1999/xlink" xmlns="http://www.w3.org/2000/svg" width="66" height="66" viewBox="0 0 66 66" fill="none"><rect width="66" height="66" rx="10" fill="#FFFFFF"></rect><g clip-path="url(#clip0_205_3682)" fill="none"><path d="M15 28.4999L32.334 39.5317C32.532 39.6779 32.766 39.7499 33 39.7499C33.234 39.7499 33.468 39.6779 33.666 39.5317L51 28.4999L33.675 15.2249C33.2745 14.9257 32.7255 14.9257 32.325 15.2249L15 28.4999Z" fill="#64B5F6"></path><path d="M44.25 15H21.75C20.5102 15 19.5 16.0102 19.5 17.25V42C19.5 42.621 20.004 43.125 20.625 43.125H45.375C45.996 43.125 46.5 42.621 46.5 42V17.25C46.5 16.0102 45.492 15 44.25 15Z" fill="#ECEFF1"></path><path d="M25.125 21.75H40.875C41.496 21.75 42 21.246 42 20.625C42 20.004 41.496 19.5 40.875 19.5H25.125C24.504 19.5 24 20.004 24 20.625C24 21.246 24.504 21.75 25.125 21.75Z" fill="#90A4AE"></path><path d="M40.875 24H25.125C24.504 24 24 24.504 24 25.125C24 25.746 24.504 26.25 25.125 26.25H40.875C41.496 26.25 42 25.746 42 25.125C42 24.504 41.496 24 40.875 24Z" fill="#90A4AE"></path><path d="M34.125 28.5H25.125C24.504 28.5 24 29.004 24 29.625C24 30.246 24.504 30.75 25.125 30.75H34.125C34.746 30.75 35.25 30.246 35.25 29.625C35.25 29.004 34.746 28.5 34.125 28.5Z" fill="#90A4AE"></path><path d="M33.666 39.5317C33.468 39.678 33.234 39.75 33 39.75C32.766 39.75 32.532 39.678 32.334 39.5317L15 28.5V48.75C15 49.992 16.008 51 17.25 51H48.75C49.992 51 51 49.992 51 48.75V28.5L33.666 39.5317Z" fill="#1E88E5"></path><path d="M48.75 51H17.25C15.9878 51 15 50.0122 15 48.75C15 48.3923 15.171 48.0548 15.459 47.8433L32.334 36.5933C32.532 36.447 32.766 36.375 33 36.375C33.234 36.375 33.468 36.447 33.666 36.5933L50.541 47.8433C50.829 48.0548 51 48.3923 51 48.75C51 50.0122 50.0122 51 48.75 51Z" fill="#2196F3"></path></g><defs><clipPath id="clip0_205_3682"><rect width="36" height="36" fill="white" transform="translate(15 15)"></rect></clipPath></defs></svg>