<svg xmlns:xlink="http://www.w3.org/1999/xlink" xmlns="http://www.w3.org/2000/svg" width="80" height="80" viewBox="0 0 80 80" fill="none"><g clip-path="url(#clip0_224_9030)" fill="none"><path d="M16.7515 79.8533C14.8748 79.2979 13.8036 77.3261 14.359 75.4493L17.5462 64.6807L24.3426 66.6922L21.1554 77.4608C20.6 79.3377 18.6283 80.4089 16.7515 79.8533Z" fill="#E19974"></path><path d="M56.0379 79.8533C57.9146 79.2979 58.9858 77.3261 58.4304 75.4493L55.2432 64.6807L48.4468 66.6922L51.634 77.4608C52.1894 79.3377 54.1611 80.4089 56.0379 79.8533Z" fill="#E19974"></path><path d="M24.3423 66.6924L21.1553 77.4612C20.6003 79.3377 18.6275 80.4091 16.7509 79.8526C16.499 79.7788 16.2632 79.6793 16.042 79.5558C16.8279 79.1211 17.4487 78.3897 17.7229 77.4612L21.335 65.8022L24.3423 66.6924Z" fill="#DC8758"></path><path d="M56.0374 79.8527C55.0894 80.1333 54.1175 80.0002 53.3155 79.556C54.7414 78.7716 55.4808 77.0747 54.998 75.4499L52.0869 65.6146L55.2435 64.6812L58.4305 75.4499C58.9854 77.3265 57.9155 79.2977 56.0374 79.8527Z" fill="#DC8758"></path><path d="M36.3949 75.1453C55.1547 75.1453 70.3626 59.9374 70.3626 41.1776C70.3626 22.4178 55.1547 7.20996 36.3949 7.20996C17.6351 7.20996 2.42725 22.4178 2.42725 41.1776C2.42725 59.9374 17.6351 75.1453 36.3949 75.1453Z" fill="#FE646F"></path><path d="M70.3622 41.1773C70.3622 59.9366 55.1555 75.1451 36.3944 75.1451C28.5529 75.1451 21.3337 72.489 15.5835 68.0252C20.6551 71.039 26.5801 72.7696 32.9074 72.7696C51.6668 72.7696 66.8752 57.5612 66.8752 38.8018C66.8752 27.8791 61.7202 18.161 53.7086 11.9473C63.6804 17.8674 70.3622 28.742 70.3622 41.1773Z" fill="#FD4755"></path><path d="M36.395 68.1621C51.2981 68.1621 63.3794 56.0808 63.3794 41.1777C63.3794 26.2747 51.2981 14.1934 36.395 14.1934C21.492 14.1934 9.41064 26.2747 9.41064 41.1777C9.41064 56.0808 21.492 68.1621 36.395 68.1621Z" fill="#F9F8F9"></path><path d="M63.3787 41.1774C63.3787 56.081 51.2979 68.1618 36.3944 68.1618C32.5017 68.1618 28.8029 67.3374 25.4604 65.8554C27.9161 66.5899 30.5176 66.9846 33.2122 66.9846C48.1142 66.9846 60.1965 54.9038 60.1965 40.0002C60.1965 28.9893 53.6012 19.5182 44.1461 15.3223C55.2709 18.6535 63.3787 28.9699 63.3787 41.1774Z" fill="#EFEDEF"></path><path d="M36.3949 61.3948C47.5606 61.3948 56.6121 52.3433 56.6121 41.1776C56.6121 30.012 47.5606 20.9604 36.3949 20.9604C25.2293 20.9604 16.1777 30.012 16.1777 41.1776C16.1777 52.3433 25.2293 61.3948 36.3949 61.3948Z" fill="#FE646F"></path><path d="M56.6118 41.1775C56.6118 52.3441 47.5608 61.3949 36.3943 61.3949C32.6347 61.3949 29.1141 60.3683 26.0986 58.58C28.2479 59.358 30.5671 59.783 32.9843 59.783C44.1507 59.783 53.2018 50.7321 53.2018 39.5655C53.2018 32.1617 49.2208 25.6867 43.2832 22.1646C51.0574 24.9811 56.6118 32.4313 56.6118 41.1775Z" fill="#FD4755"></path><path d="M36.3951 54.1985C43.5862 54.1985 49.4158 48.3689 49.4158 41.1778C49.4158 33.9868 43.5862 28.1572 36.3951 28.1572C29.204 28.1572 23.3745 33.9868 23.3745 41.1778C23.3745 48.3689 29.204 54.1985 36.3951 54.1985Z" fill="#F9F8F9"></path><path d="M49.4151 41.1773C49.4151 48.3694 43.5865 54.198 36.3945 54.198C33.6903 54.198 31.1786 53.3736 29.0967 51.9637C30.3606 52.3728 31.7095 52.594 33.1114 52.594C40.3017 52.594 46.132 46.7655 46.132 39.5734C46.132 35.0856 43.8609 31.1272 40.4061 28.7886C45.6346 30.4775 49.4151 35.3872 49.4151 41.1773Z" fill="#EFEDEF"></path><path d="M36.3947 47.0517C39.6387 47.0517 42.2685 44.4219 42.2685 41.1779C42.2685 37.934 39.6387 35.3042 36.3947 35.3042C33.1508 35.3042 30.521 37.934 30.521 41.1779C30.521 44.4219 33.1508 47.0517 36.3947 47.0517Z" fill="#FE646F"></path><path d="M42.268 41.1776C42.268 44.4222 39.6391 47.0512 36.3944 47.0512C35.0552 47.0512 33.82 46.6021 32.832 45.8482C33.0133 45.8658 33.1961 45.8738 33.3822 45.8738C36.6253 45.8738 39.2558 43.2451 39.2558 40.0002C39.2558 38.0963 38.3495 36.4026 36.9445 35.3296C39.9311 35.6071 42.268 38.1204 42.268 41.1776Z" fill="#FD4755"></path><path d="M36.3948 42.3807C36.087 42.3807 35.779 42.2632 35.5442 42.0284C35.0745 41.5587 35.0745 40.797 35.5442 40.3271L67.581 8.29025C68.0509 7.82057 68.8124 7.82057 69.2824 8.29025C69.7521 8.75994 69.7521 9.52166 69.2824 9.9915L37.2454 42.0284C37.0104 42.2632 36.7024 42.3807 36.3948 42.3807Z" fill="#8B8089"></path><path d="M69.5962 7.97634L68.6584 0.56165C68.5915 0.0325871 67.9456 -0.188507 67.5685 0.188681L56.2137 11.5435C56.0639 11.6934 55.9978 11.9076 56.037 12.1157L57.5298 20.0427L69.5962 7.97634Z" fill="#FEE97D"></path><path d="M69.5969 7.97627L57.5289 20.0425L56.8169 16.2556L69.0916 3.98096L69.5969 7.97627Z" fill="#FEDF30"></path><path d="M69.5963 7.97656L77.0109 8.91437C77.5399 8.98125 77.761 9.62719 77.3838 10.0042L66.029 21.3591C65.8792 21.5089 65.6649 21.575 65.4568 21.5358L57.5298 20.043L69.5963 7.97656Z" fill="#FEDF30"></path><path d="M77.384 10.0035L66.0298 21.3593C65.879 21.5085 65.6658 21.5742 65.4572 21.5357L61.9253 20.8701L73.8505 8.94494C73.9692 8.82619 74.0284 8.68197 74.0381 8.5376L77.0101 8.91447C77.5397 8.98182 77.7609 9.62666 77.384 10.0035Z" fill="#FED402"></path></g><defs><clipPath id="clip0_224_9030"><rect width="80" height="80" fill="white"></rect></clipPath></defs></svg>