<svg xmlns:xlink="http://www.w3.org/1999/xlink" xmlns="http://www.w3.org/2000/svg" width="80" height="80" viewBox="0 0 80 80" fill="none"><path d="M39.9999 0C23.1694 0 9.53076 13.8208 9.53076 30.6254C9.53076 39.447 13.3006 47.4037 19.3123 52.9728L22.4997 57.4277C27.4549 60.9176 33.4918 62.9695 39.9999 62.9695C46.6453 62.9695 52.7997 60.8299 57.8126 57.2046L60.6875 52.9728C66.6991 47.4037 70.469 39.447 70.469 30.6254C70.469 13.7948 56.8065 0 39.9999 0Z" fill="url(&quot;#paint0_linear_224_9058&quot;)"></path><path d="M68.2458 68.2304L60.6875 52.9727C55.2501 58.0099 47.979 61.0944 40 61.0944C32.021 61.0944 24.7498 58.0099 19.3124 52.9727L11.7543 68.2304C11.3778 68.9905 11.4413 69.8949 11.9206 70.5948C12.4 71.2948 13.2198 71.6809 14.0648 71.6051L23.5974 70.7462L28.6317 78.8886C29.06 79.5814 29.8155 79.9999 30.6249 79.9999C30.6613 79.9999 30.698 79.9991 30.7345 79.9974C31.5849 79.9577 32.3467 79.46 32.7249 78.6974L39.9967 64.0325C42.1484 68.3821 45.4333 75.0147 47.2782 78.7042C47.6582 79.4644 48.4199 79.9591 49.2688 79.9975C50.1174 80.0354 50.921 79.6116 51.3681 78.8886L56.4023 70.7462L65.9351 71.6051C66.7789 71.681 67.6 71.2949 68.0794 70.5949C68.5587 69.8949 68.6223 68.9905 68.2458 68.2304ZM40 51.7192C51.6312 51.7192 61.094 42.2565 61.094 30.6252C61.094 18.99 51.6507 9.375 40 9.375C28.3645 9.375 18.906 18.9731 18.906 30.6252C18.906 42.2565 28.3687 51.7192 40 51.7192ZM28.9676 28.9679C29.8828 28.0527 31.3669 28.0527 32.2822 28.9679L37.6563 34.342L47.718 24.2803C48.6332 23.365 50.1173 23.365 51.0326 24.2803C51.9479 25.1957 51.9479 26.6796 51.0326 27.5949L39.3137 39.3138C38.3985 40.229 36.9145 40.2291 35.9991 39.3138L28.9678 32.2825C28.0523 31.3673 28.0523 29.8832 28.9676 28.9679Z" fill="url(&quot;#paint1_linear_224_9058&quot;)"></path><defs><linearGradient id="" x1="39.9999" y1="62.9695" x2="39.9999" y2="0" gradientUnits="userSpaceOnUse"><stop stop-color="#00B59C"></stop><stop offset="1" stop-color="#9CFFAC"></stop></linearGradient><linearGradient id="" x1="40" y1="79.9999" x2="40" y2="9.375" gradientUnits="userSpaceOnUse"><stop stop-color="#C3FFE8"></stop><stop offset="0.9973" stop-color="#F0FFF4"></stop></linearGradient><linearGradient id="paint0_linear_224_9058" x1="39.9999" y1="62.9695" x2="39.9999" y2="0" gradientUnits="userSpaceOnUse"><stop stop-color="#00B59C"></stop><stop offset="1" stop-color="#9CFFAC"></stop></linearGradient><linearGradient id="paint1_linear_224_9058" x1="40" y1="79.9999" x2="40" y2="9.375" gradientUnits="userSpaceOnUse"><stop stop-color="#C3FFE8"></stop><stop offset="0.9973" stop-color="#F0FFF4"></stop></linearGradient></defs></svg>