<svg xmlns:xlink="http://www.w3.org/1999/xlink" xmlns="http://www.w3.org/2000/svg" width="66" height="66" viewBox="0 0 66 66" fill="none"><rect width="66" height="66" rx="10" fill="#FFFFFF"></rect><g clip-path="url(#clip0_205_3697)" fill="none"><path d="M50.0195 41.4204L44.9956 36.3965C43.2013 34.6022 40.1511 35.32 39.4334 37.6524C38.8951 39.2673 37.1009 40.1645 35.486 39.8055C31.8975 38.9084 27.0531 34.2434 26.1559 30.4754C25.6177 28.8605 26.6942 27.0663 28.309 26.5281C30.6416 25.8104 31.3593 22.7601 29.565 20.9659L24.5411 15.942C23.1057 14.686 20.9526 14.686 19.6966 15.942L16.2875 19.3511C12.8785 22.9396 16.6464 32.4491 25.0794 40.8821C33.5124 49.3151 43.0219 53.2625 46.6104 49.6739L50.0195 46.2649C51.2755 44.8295 51.2755 42.6763 50.0195 41.4204Z" fill="#428EFF"></path></g><defs><clipPath id="clip0_205_3697"><rect width="36" height="36" fill="white" transform="translate(15 15)"></rect></clipPath></defs></svg>