<svg xmlns:xlink="http://www.w3.org/1999/xlink" xmlns="http://www.w3.org/2000/svg" width="69" height="69" viewBox="0 0 69 69" fill="none"><rect width="69" height="69" rx="10" fill="#F5F8FD"></rect><path fill-rule="evenodd" clip-rule="evenodd" d="M40.667 32.2559V35.7443C40.667 38.3937 42.8141 40.5407 45.4635 40.5407H48.9518C51.6012 40.5407 53.7482 38.3937 53.7482 35.7443V32.2559C53.7482 29.6065 51.6012 27.4595 48.9518 27.4595H45.4635C42.8141 27.4595 40.667 29.6065 40.667 32.2559Z" fill="#C6C6EF"></path><path fill-rule="evenodd" clip-rule="evenodd" d="M16.249 20.0465V23.5348C16.249 26.1842 18.3961 28.3313 21.0455 28.3313H24.5338C27.1832 28.3313 29.3303 26.1842 29.3303 23.5348V20.0465C29.3303 17.3971 27.1832 15.25 24.5338 15.25H21.0455C18.3961 15.25 16.249 17.3971 16.249 20.0465Z" fill="#C6C6EF"></path><path fill-rule="evenodd" clip-rule="evenodd" d="M16.249 44.4644V47.9528C16.249 50.6022 18.3961 52.7492 21.0455 52.7492H24.5338C27.1832 52.7492 29.3303 50.6022 29.3303 47.9528V44.4644C29.3303 41.815 27.1832 39.668 24.5338 39.668H21.0455C18.3961 39.668 16.249 41.815 16.249 44.4644Z" fill="#C6C6EF"></path><path fill-rule="evenodd" clip-rule="evenodd" d="M22.7215 42.2831L22.7896 42.2848L22.8454 42.2778C23.0965 42.243 24.0977 42.0302 24.0977 40.954V39.2325C24.0977 38.1913 24.5111 37.1936 25.2471 36.4576C25.9831 35.7215 26.9808 35.3081 28.0221 35.3081H41.9754C42.6975 35.3081 43.2835 34.7221 43.2835 34C43.2835 33.2779 42.6975 32.6919 41.9754 32.6919H28.0221C26.2866 32.6919 24.6244 33.3808 23.3965 34.607C22.1704 35.8349 21.4814 37.4971 21.4814 39.2325V40.954V40.9645V40.9767C21.4814 41.0674 21.4902 41.1563 21.5094 41.2418C21.5442 41.4284 21.614 41.5819 21.7047 41.7075C21.928 42.0389 22.2995 42.2621 22.7215 42.2831Z" fill="#C6C6EF"></path><path fill-rule="evenodd" clip-rule="evenodd" d="M47.1398 30.0736L47.2078 30.0753L47.2636 30.0684C47.5148 30.0335 48.516 29.8207 48.516 28.7445C48.516 28.6155 48.516 27.9248 48.516 27.023C48.516 25.2876 47.827 23.6254 46.6009 22.3975C45.373 21.1714 43.7108 20.4824 41.9753 20.4824H28.022C27.2999 20.4824 26.7139 21.0685 26.7139 21.7905C26.7139 22.5126 27.2999 23.0987 28.022 23.0987H41.9753C43.0166 23.0987 44.0143 23.512 44.7503 24.2481C45.4863 24.9841 45.8997 25.9818 45.8997 27.023V28.7445V28.755V28.7672C45.8997 28.8579 45.9084 28.9469 45.9276 29.0323C45.9625 29.219 46.0323 29.3724 46.123 29.498C46.3462 29.8294 46.7177 30.0527 47.1398 30.0736Z" fill="#C6C6EF"></path><path fill-rule="evenodd" clip-rule="evenodd" d="M28.022 47.5172H40.2312C40.7596 47.5172 41.2375 47.1981 41.4399 46.7097C41.6422 46.2213 41.5306 45.658 41.1556 45.2847L37.6672 41.7964C37.1579 41.2853 36.3277 41.2853 35.8184 41.7964C35.3074 42.3057 35.3074 43.1359 35.8184 43.6452L37.0725 44.901H28.022C27.2999 44.901 26.7139 45.487 26.7139 46.2091C26.7139 46.9312 27.2999 47.5172 28.022 47.5172Z" fill="#C6C6EF"></path><path fill-rule="evenodd" clip-rule="evenodd" d="M39.3081 45.2846L35.8198 48.773C35.3088 49.2823 35.3088 50.1125 35.8198 50.6218C36.3291 51.1328 37.1593 51.1328 37.6686 50.6218L41.157 47.1335C41.668 46.6242 41.668 45.7939 41.157 45.2846C40.6477 44.7736 39.8174 44.7736 39.3081 45.2846Z" fill="#C6C6EF"></path></svg>