<svg xmlns:xlink="http://www.w3.org/1999/xlink" xmlns="http://www.w3.org/2000/svg" width="69" height="69" viewBox="0 0 69 69" fill="none"><rect width="69" height="69" rx="10" fill="#F5F8FD"></rect><g clip-path="url(#clip0_360_4226)" fill="#FFFFFF"><path d="M15.8609 40.8509L19.4972 47.1492C19.9307 47.8998 20.8336 48.2401 21.6544 47.9624L27.0052 46.1522C27.4781 46.464 27.9684 46.7476 28.473 47.0015L29.5804 52.5384C29.7503 53.3882 30.4966 54 31.3633 54H38.636C39.5027 54 40.249 53.3882 40.4189 52.5384L41.5263 47.0015C42.0309 46.7476 42.5211 46.4639 42.994 46.1522L48.3449 47.9624C49.1657 48.2399 50.0687 47.8999 50.5021 47.1492L54.1384 40.8508C54.5718 40.1002 54.4152 39.1481 53.7641 38.576L49.5205 34.8467C49.5369 34.5641 49.5451 34.2813 49.5451 34C49.5451 33.7185 49.5369 33.4358 49.5205 33.1532L53.7639 29.424C54.4149 28.8519 54.5715 27.8998 54.1382 27.1492L50.5018 20.8508C50.0685 20.1002 49.1655 19.7598 48.3446 20.0376L42.994 21.8478C42.5212 21.536 42.0309 21.2524 41.5263 20.9985L40.4189 15.4616C40.249 14.6118 39.5027 14 38.636 14H31.3633C30.4966 14 29.7503 14.6118 29.5804 15.4616L28.473 20.9985C27.9684 21.2524 27.4782 21.5361 27.0054 21.8478L21.6544 20.0376C20.8338 19.76 19.9307 20.1002 19.4972 20.8508L15.8609 27.1492C15.4275 27.8998 15.5841 28.8519 16.2352 29.424L20.4786 33.1532C20.4623 33.4354 20.4542 33.7182 20.4542 34C20.4542 34.2818 20.4623 34.5647 20.4786 34.8468L16.2352 38.576C15.5841 39.1481 15.4275 40.1002 15.8609 40.8509ZM34.9997 26.7273C39.0098 26.7273 42.2724 29.9898 42.2724 34C42.2724 38.0102 39.0098 41.2727 34.9997 41.2727C30.9895 41.2727 27.7269 38.0102 27.7269 34C27.7269 29.9898 30.9895 26.7273 34.9997 26.7273Z" fill="#C6C6EF"></path></g><defs><clipPath id="clip0_360_4226"><rect width="40" height="40" fill="white" transform="translate(15 14)"></rect></clipPath></defs></svg>