<svg xmlns="http://www.w3.org/2000/svg" width="128" height="47" viewBox="0 0 128 47" fill="none"><path d="M97.1089 23.0679H127.004V38.3207C127.004 40.4069 126.186 42.4076 124.73 43.8828C123.275 45.3579 121.3 46.1867 119.241 46.1867H97.1089V23.0679Z" fill="#A56D26"></path><path d="M18.3584 0.992188C17.0856 1.11404 15.8602 1.54386 14.7854 2.24545C13.7106 2.94704 12.8177 3.8999 12.1819 5.02391L0.566119 26.2819C-0.644145 28.5092 0.148785 30.3136 2.34674 30.3136H119.2C121.277 30.3136 123.269 31.1498 124.738 32.6382C126.207 34.1266 127.032 36.1452 127.032 38.2501V8.49172C127.034 7.51123 126.845 6.54001 126.476 5.63363C126.107 4.72725 125.565 3.90349 124.881 3.20953C124.198 2.51557 123.386 1.96503 122.492 1.58939C121.598 1.21375 120.64 1.02041 119.673 1.02041L18.3584 0.992188Z" fill="url(#paint0_linear_64_789)"></path><path d="M18.663 19.413L20.992 19.311C21.162 20.773 21.978 21.504 23.457 21.504C24.783 21.504 25.599 20.858 25.599 19.804C25.599 16.965 18.901 18.886 18.901 14.194C18.901 12.12 20.584 10.947 23.491 10.947C26.432 10.947 27.979 12.069 28.166 14.33L25.82 14.5C25.701 13.191 24.953 12.562 23.457 12.562C22.165 12.562 21.4 13.157 21.4 14.16C21.4 17.067 28.098 15.146 28.098 19.753C28.098 21.861 26.33 23.136 23.389 23.136C20.38 23.136 18.918 21.98 18.663 19.413ZM28.9432 23L32.7512 11.1H36.4402L40.2482 23H37.8852L37.0012 20.161H32.1902L31.3062 23H28.9432ZM34.5702 12.613L32.7172 18.512H36.4742L34.6382 12.613H34.5702ZM32.0542 7.309H33.2442C33.2442 8.482 33.8562 8.72 34.5022 8.72H34.6552C35.4882 8.72 35.9472 8.295 35.9472 7.309H37.1372C37.1372 9.485 36.1342 10.199 34.6892 10.199H34.5192C33.1762 10.199 32.0542 9.621 32.0542 7.309ZM32.9892 6.68L32.3602 5.728L35.7772 2.855L36.8312 4.453L32.9892 6.68ZM41.6033 11.1H46.1593C48.7773 11.1 50.1373 12.341 50.1373 14.721V15.656C50.1373 17.968 48.7603 19.192 46.1593 19.192H43.9323V23H41.6033V11.1ZM45.6153 12.749H43.9323V17.543H45.6153C47.1623 17.543 47.8763 16.88 47.8763 15.452V14.908C47.8763 13.395 47.1793 12.749 45.6153 12.749ZM55.9139 23V11.1H60.7589C63.2409 11.1 64.5159 12.29 64.5159 14.585V15.452C64.5159 16.948 63.9209 17.985 62.7819 18.478L64.7199 23H62.3399L60.6059 18.852H58.2429V23H55.9139ZM60.0619 12.749H58.2429V17.203H60.0619C61.5579 17.203 62.2889 16.574 62.2889 15.248V14.755C62.2889 13.361 61.5919 12.749 60.0619 12.749ZM65.4501 23L69.2581 11.1H72.9471L76.7551 23H74.3921L73.5081 20.161H68.6971L67.8131 23H65.4501ZM71.0771 12.613L69.2241 18.512H72.9811L71.1451 12.613H71.0771ZM82.2771 11.1H85.5071L88.2441 18.92H88.3121L91.0491 11.1H94.2791V23H91.9501V13.888H91.8991L89.0941 21.878H87.4621L84.6571 13.888H84.6061V23H82.2771V11.1ZM95.6317 23L99.4397 11.1H103.129L106.937 23H104.574L103.69 20.161H98.8787L97.9947 23H95.6317ZM101.259 12.613L99.4057 18.512H103.163L101.327 12.613H101.259ZM98.7427 7.309H99.9327C99.9327 8.482 100.545 8.72 101.191 8.72H101.344C102.177 8.72 102.636 8.295 102.636 7.309H103.826C103.826 9.485 102.823 10.199 101.378 10.199H101.208C99.8647 10.199 98.7427 9.621 98.7427 7.309ZM99.6777 6.68L99.0487 5.728L102.466 2.855L103.52 4.453L99.6777 6.68ZM109.65 12.783H106.556V11.1H115.056V12.783H111.962V23H109.65V12.783Z" fill="white"></path><defs><linearGradient id="paint0_linear_64_789" x1="-0.00423563" y1="19.6141" x2="127.004" y2="19.6141" gradientUnits="userSpaceOnUse"><stop stop-color="#CC9649"></stop><stop offset="1" stop-color="#FFA726"></stop></linearGradient></defs></svg>