<svg xmlns="http://www.w3.org/2000/svg" width="128" height="46" viewBox="0 0 128 46" fill="none"><path d="M97.1089 22.0757H127.004V37.3285C127.004 39.4147 126.186 41.4154 124.73 42.8906C123.275 44.3658 121.3 45.1945 119.241 45.1945H97.1089V22.0757Z" fill="#093C89"></path><path d="M18.3584 0C17.0856 0.121855 15.8602 0.551676 14.7854 1.25326C13.7106 1.95485 12.8177 2.90771 12.1819 4.03172L0.566119 25.2897C-0.644145 27.517 0.148785 29.3214 2.34674 29.3214H119.2C121.277 29.3214 123.269 30.1576 124.738 31.646C126.207 33.1344 127.032 35.153 127.032 37.2579V7.49953C127.034 6.51905 126.845 5.54782 126.476 4.64144C126.107 3.73506 125.565 2.91131 124.881 2.21734C124.198 1.52338 123.386 0.972847 122.492 0.597206C121.598 0.221564 120.64 0.0282195 119.673 0.0282212L18.3584 0Z" fill="url(#paint0_linear_1156_6626)"></path><path d="M20.663 17.8319L22.992 17.7299C23.162 19.1919 23.978 19.9229 25.457 19.9229C26.783 19.9229 27.599 19.2769 27.599 18.2229C27.599 15.3839 20.901 17.3049 20.901 12.6129C20.901 10.5389 22.584 9.36594 25.491 9.36594C28.432 9.36594 29.979 10.4879 30.166 12.7489L27.82 12.9189C27.701 11.6099 26.953 10.9809 25.457 10.9809C24.165 10.9809 23.4 11.5759 23.4 12.5789C23.4 15.4859 30.098 13.5649 30.098 18.1719C30.098 20.2799 28.33 21.5549 25.389 21.5549C22.38 21.5549 20.918 20.3989 20.663 17.8319ZM30.9432 21.4189L34.7512 9.51894H38.4402L42.2482 21.4189H39.8852L39.0012 18.5799H34.1902L33.3062 21.4189H30.9432ZM36.5702 11.0319L34.7172 16.9309H38.4742L36.6382 11.0319H36.5702ZM34.0542 5.72794H35.2442C35.2442 6.90094 35.8562 7.13894 36.5022 7.13894H36.6552C37.4882 7.13894 37.9472 6.71394 37.9472 5.72794H39.1372C39.1372 7.90395 38.1342 8.61794 36.6892 8.61794H36.5192C35.1762 8.61794 34.0542 8.03994 34.0542 5.72794ZM34.9892 5.09894L34.3602 4.14694L37.7772 1.27394L38.8312 2.87194L34.9892 5.09894ZM43.6033 9.51894H48.1593C50.7773 9.51894 52.1373 10.7599 52.1373 13.1399V14.0749C52.1373 16.3869 50.7603 17.6109 48.1593 17.6109H45.9323V21.4189H43.6033V9.51894ZM47.6153 11.1679H45.9323V15.9619H47.6153C49.1623 15.9619 49.8763 15.2989 49.8763 13.8709V13.3269C49.8763 11.8139 49.1793 11.1679 47.6153 11.1679ZM57.9139 21.4189V9.51894H62.7589C65.2409 9.51894 66.5159 10.7089 66.5159 13.0039V13.8709C66.5159 15.3669 65.9209 16.4039 64.7819 16.8969L66.7199 21.4189H64.3399L62.6059 17.2709H60.2429V21.4189H57.9139ZM62.0619 11.1679H60.2429V15.6219H62.0619C63.5579 15.6219 64.2889 14.9929 64.2889 13.6669V13.1739C64.2889 11.7799 63.5919 11.1679 62.0619 11.1679ZM67.4501 21.4189L71.2581 9.51894H74.9471L78.7551 21.4189H76.3921L75.5081 18.5799H70.6971L69.8131 21.4189H67.4501ZM73.0771 11.0319L71.2241 16.9309H74.9811L73.1451 11.0319H73.0771ZM84.2771 9.51894H87.5071L90.2441 17.3389H90.3121L93.0491 9.51894H96.2791V21.4189H93.9501V12.3069H93.8991L91.0941 20.2969H89.4621L86.6571 12.3069H86.6061V21.4189H84.2771V9.51894ZM97.6317 21.4189L101.44 9.51894H105.129L108.937 21.4189H106.574L105.69 18.5799H100.879L99.9947 21.4189H97.6317ZM103.259 11.0319L101.406 16.9309H105.163L103.327 11.0319H103.259ZM100.743 5.72794H101.933C101.933 6.90094 102.545 7.13894 103.191 7.13894H103.344C104.177 7.13894 104.636 6.71394 104.636 5.72794H105.826C105.826 7.90395 104.823 8.61794 103.378 8.61794H103.208C101.865 8.61794 100.743 8.03994 100.743 5.72794ZM101.678 5.09894L101.049 4.14694L104.466 1.27394L105.52 2.87194L101.678 5.09894ZM111.65 11.2019H108.556V9.51894H117.056V11.2019H113.962V21.4189H111.65V11.2019Z" fill="white"></path><defs><linearGradient id="paint0_linear_1156_6626" x1="-0.00423563" y1="18.6219" x2="127.004" y2="18.6219" gradientUnits="userSpaceOnUse"><stop stop-color="#093C89"></stop><stop offset="1" stop-color="#4262EF"></stop></linearGradient></defs></svg>