<svg width="131" height="53" viewBox="0 0 131 53" fill="none" xmlns="http://www.w3.org/2000/svg">
<g clip-path="url(#clip0_566_1023)">
<path d="M32.333 21.2121L22.1095 51.8599C21.7671 52.8948 20.5354 53.3209 19.6241 52.7177L3.46308 42.0535C1.41396 40.7031 1.55204 37.6428 3.72267 36.4862L32.333 21.2065V21.2121Z" fill="url(#paint0_linear_566_1023)"/>
<path d="M118.087 39.0154H6.64457C5.34661 39.0154 4.38557 40.2162 4.66725 41.4891L6.67219 44.2285L2.46901 41.3729C0.38675 40.0004 -0.508014 37.3939 0.281808 35.0253L11.3614 1.89266C11.737 0.763705 12.7919 0 13.9794 0H129.172C130.823 0 131.619 2.02548 130.415 3.15443L114.309 18.2293C113.398 19.0815 113.11 20.4097 113.591 21.5608L119.766 36.4918C120.263 37.6927 119.379 39.0098 118.087 39.0098V39.0154Z" fill="url(#paint1_linear_566_1023)"/>
<g filter="url(#filter0_d_566_1023)">
<path d="M15.1778 23.6414C14.3603 23.4422 13.681 23.1766 13.1508 22.85L14.5481 20.1715C15.708 20.8412 16.9176 21.1732 18.1769 21.1732C18.6353 21.1732 18.9888 21.1179 19.2374 21.0017C19.4859 20.8854 19.6074 20.736 19.6074 20.5423C19.6074 20.3597 19.4804 20.2103 19.2318 20.0941C18.9833 19.9834 18.5856 19.8561 18.0388 19.7233C17.3208 19.5407 16.7298 19.3525 16.2548 19.1588C15.7798 18.9651 15.3711 18.6773 15.0176 18.2789C14.6641 17.886 14.4874 17.3602 14.4874 16.7183C14.4874 15.9048 14.7028 15.1964 15.1391 14.5876C15.5755 13.9789 16.1996 13.503 17.0225 13.1709C17.84 12.8389 18.8121 12.6729 19.9278 12.6729C20.7286 12.6729 21.4743 12.7503 22.1647 12.9108C22.8551 13.0713 23.4516 13.2982 23.9542 13.597L22.6452 16.2479C22.2254 15.9822 21.7615 15.783 21.2533 15.6502C20.7452 15.5174 20.226 15.451 19.6958 15.451C19.1932 15.451 18.8065 15.5229 18.5304 15.6668C18.2542 15.8107 18.1161 15.9822 18.1161 16.1759C18.1161 16.3696 18.2432 16.5246 18.4917 16.6353C18.7403 16.7459 19.1545 16.8732 19.7289 17.006C20.4249 17.1721 21.0103 17.3436 21.4908 17.5318C21.9714 17.7199 22.3801 18.0022 22.728 18.3951C23.076 18.788 23.2527 19.2972 23.2527 19.9336C23.2527 20.736 23.0318 21.4389 22.59 22.0421C22.1481 22.6453 21.5185 23.1157 20.701 23.4533C19.8836 23.7853 18.917 23.9513 17.8124 23.9513C16.8789 23.9513 16.0063 23.8517 15.1833 23.6525L15.1778 23.6414Z" fill="white"/>
<path d="M30.7036 21.8152H26.5998L25.5228 23.6913H21.6952L28.5495 12.9109H32.1175L34.6693 23.6913H31.0571L30.7036 21.8152ZM28.4501 11.6048C27.9033 11.2174 27.6492 10.6917 27.6879 10.0332H29.5768C29.5879 10.2268 29.7039 10.3873 29.9303 10.5035C30.1568 10.6198 30.4495 10.6806 30.8085 10.6806C31.1675 10.6806 31.4437 10.6198 31.6757 10.5035C31.9076 10.3873 32.0457 10.2268 32.101 10.0332H34.1114C33.9789 10.6917 33.6033 11.2119 32.9847 11.6048C32.3661 11.9978 31.6039 12.1914 30.7036 12.1914C29.7536 12.1914 29.0024 11.9978 28.4501 11.6048ZM30.1954 19.1976L29.6707 16.4416L28.0856 19.1976H30.1899H30.1954ZM31.162 7.44873H34.5257L31.742 9.45207H29.3725L31.1565 7.44873H31.162Z" fill="white"/>
<path d="M44.7492 13.8573C45.539 14.4827 45.9311 15.3626 45.9311 16.4915C45.9311 17.3936 45.7102 18.1905 45.2628 18.8767C44.8154 19.5629 44.1803 20.0998 43.3573 20.4761C42.5343 20.8579 41.5788 21.0461 40.4908 21.0461H38.6294L38.1047 23.6969H34.476L36.63 12.9165H41.4076C42.8436 12.9165 43.9538 13.2319 44.7436 13.8573H44.7492ZM41.8439 17.8695C42.1201 17.6205 42.2582 17.2663 42.2582 16.8125C42.2582 16.082 41.8053 15.7168 40.905 15.7168H39.6899L39.1817 18.2403H40.673C41.1756 18.2403 41.5623 18.113 41.8439 17.864V17.8695Z" fill="white"/>
<path d="M59.6619 18.9597C59.1538 19.6736 58.4413 20.2049 57.5189 20.5536L59.314 23.6969H55.5471L54.0282 20.9852H53.139L52.6033 23.6969H48.9745L51.1285 12.9165H55.9559C57.3698 12.9165 58.4689 13.2264 59.2532 13.8462C60.0375 14.466 60.4297 15.3349 60.4297 16.4583C60.4297 17.4157 60.1756 18.2458 59.6675 18.9597H59.6619ZM55.398 15.7168H54.1829L53.6748 18.2403H55.166C55.6686 18.2403 56.0553 18.113 56.337 17.864C56.6131 17.6149 56.7512 17.2608 56.7512 16.807C56.7512 16.0765 56.2983 15.7112 55.398 15.7112V15.7168Z" fill="white"/>
<path d="M67.4939 21.815H63.3901L62.3131 23.6911H58.4855L65.3398 12.9106H68.9078L71.4595 23.6911H67.8473L67.4939 21.815ZM66.9857 19.1974L66.461 16.4414L64.8759 19.1974H66.9802H66.9857Z" fill="white"/>
<path d="M90.1447 12.9162L88.0237 23.6966H84.7208L85.6708 18.7823L82.6441 22.7226H81.0479L79.3909 18.8432L78.4244 23.6911H75.1215L77.2755 12.9106H80.2249L82.5613 18.6384L87.0627 12.9106H90.1502L90.1447 12.9162Z" fill="white"/>
<path d="M96.8443 21.8152H92.7406L91.6635 23.6913H87.8359L94.6903 12.9109H98.2583L100.81 23.6913H97.1978L96.8443 21.8152ZM94.5908 11.6048C94.044 11.2174 93.79 10.6917 93.8286 10.0332H95.7176C95.7286 10.2268 95.8446 10.3873 96.0711 10.5035C96.2975 10.6198 96.5903 10.6806 96.9493 10.6806C97.3083 10.6806 97.5844 10.6198 97.8164 10.5035C98.0484 10.3873 98.1865 10.2268 98.2417 10.0332H100.252C100.12 10.6917 99.744 11.2119 99.1254 11.6048C98.5068 11.9978 97.7446 12.1914 96.8443 12.1914C95.8943 12.1914 95.1432 11.9978 94.5908 11.6048ZM96.3362 19.1976L95.8115 16.4416L94.2263 19.1976H96.3307H96.3362ZM97.3028 7.44873H100.666L97.8827 9.45207H95.5132L97.2972 7.44873H97.3028Z" fill="white"/>
<path d="M104.008 15.7334H100.86L101.429 12.9165H111.354L110.785 15.7334H107.637L106.051 23.6969H102.423L104.008 15.7334Z" fill="white"/>
</g>
</g>
<defs>
<filter id="filter0_d_566_1023" x="13.1508" y="7.44873" width="104.203" height="20.5024" filterUnits="userSpaceOnUse" color-interpolation-filters="sRGB">
<feFlood flood-opacity="0" result="BackgroundImageFix"/>
<feColorMatrix in="SourceAlpha" type="matrix" values="0 0 0 0 0 0 0 0 0 0 0 0 0 0 0 0 0 0 127 0" result="hardAlpha"/>
<feOffset dx="4" dy="2"/>
<feGaussianBlur stdDeviation="1"/>
<feColorMatrix type="matrix" values="0 0 0 0 0.607843 0 0 0 0 0.596078 0 0 0 0 0.6 0 0 0 0.7 0"/>
<feBlend mode="multiply" in2="BackgroundImageFix" result="effect1_dropShadow_566_1023"/>
<feBlend mode="normal" in="SourceGraphic" in2="effect1_dropShadow_566_1023" result="shape"/>
</filter>
<linearGradient id="paint0_linear_566_1023" x1="17.1717" y1="57.3718" x2="17.1717" y2="38.5449" gradientUnits="userSpaceOnUse">
<stop stop-color="#BA192D"/>
<stop offset="1" stop-color="#690E19"/>
</linearGradient>
<linearGradient id="paint1_linear_566_1023" x1="65.5001" y1="-0.45933" x2="65.5001" y2="50.8362" gradientUnits="userSpaceOnUse">
<stop stop-color="#FF223E"/>
<stop offset="1" stop-color="#B5182C"/>
</linearGradient>
<clipPath id="clip0_566_1023">
<rect width="131" height="53" fill="white"/>
</clipPath>
</defs>
</svg>
